<?xml version="1.0" encoding="utf-8"?>
<!-- Generator: Adobe Illustrator 15.0.0, SVG Export Plug-In . SVG Version: 6.00 Build 0)  -->
<!DOCTYPE svg PUBLIC "-//W3C//DTD SVG 1.1//EN" "http://www.w3.org/Graphics/SVG/1.1/DTD/svg11.dtd">
<svg version="1.1" id="Layer_1" xmlns="http://www.w3.org/2000/svg" xmlns:xlink="http://www.w3.org/1999/xlink" x="0px" y="0px"
	 width="432px" height="110px" viewBox="0 2 432 110" enable-background="new 0 0 432 415" xml:space="preserve">
<path fill="#6495EE" d="M45.79,71.73V26.084c0-7.647,1.193-12.19,5.489-12.19h2.626c8.951,0,14.56,3.098,16.593,12.271
	c1.325,0,3.012-0.12,4.097-0.598c-0.841-5.499-1.441-11.596-1.561-16.976c0-0.12-0.24-0.359-0.36-0.359
	C68.593,8.593,55.271,9.196,45.79,9.196H35.596c-9.227,0-23.365-0.602-27.918-0.964c-0.24,0-0.479,0.239-0.479,0.359
	c-0.479,5.38-1.677,11.596-2.995,17.335c1.205,0.479,2.651,0.598,4.098,0.598c2.395-9.532,7.9-12.63,15.8-12.63h5.865
	c4.429,0,5.629,4.543,5.629,11.832v46.005c0,9.918-2.037,10.516-11.611,10.874c-0.718,0.709-0.718,3.189,0,3.897
	c5.858-0.12,11.955-0.239,16.737-0.239c4.543,0,10.64,0.12,16.618,0.239c0.717-0.708,0.717-3.188,0.001-3.897
	C47.815,82.247,45.791,81.649,45.79,71.73"/>
<path fill="#FF7F00" d="M88.897,68.802H78V47.257c0-5.267,1.436-7.664,7.9-7.664h8.978c8.977,0,10.892,4.775,13.526,13.009
	c1.417,0.239,2.716,0.002,3.898-0.592c-0.6-4.867-2.392-16.263-2.631-17.214c0-0.239-0.12-0.359-0.478-0.359
	c-2.031,0.359-2.987,0.359-5.855,0.359H72.867c-3.585,0-10.635-0.149-15.414-0.299c-0.717,0.709-0.717,3.189-0.003,3.898
	c8.332,0.368,10.357,0.966,10.357,10.904v48.01c0,9.937-2.026,10.536-10.357,10.895c-0.714,0.709-0.714,3.189,0.003,3.897
	c4.421-0.101,11.591-0.202,15.534-0.202h25.691c5.736,0,15.295,0.202,15.295,0.202c1.673-5.966,3.465-13.841,4.429-19.926
	c-1.2-0.716-2.639-0.958-4.197-0.6c-2.396,8.589-6.577,15.627-15.656,15.627H84.692c-5.019,0-6.69-1.91-6.69-7.52V73.299h10.897
	c10.18,0,10.539,2.746,10.901,8.116c0.709,0.716,3.188,0.716,3.898-0.001c-0.12-3.109-0.239-6.456-0.239-10.521
	c0-3.348,0.12-7.412,0.239-10.282c-0.709-0.717-3.189-0.717-3.898,0.005c-0.362,6.62-0.721,8.185-10.901,8.185"/>
<path fill="#218B21" d="M171.319,74.104l-18.291-25.143c-1.195-1.556-1.913-2.754-1.913-3.951c0-1.078,0.12-2.155,1.196-3.592
	l16.379-21.191c4.184-5.388,7.891-6.944,13.27-7.431c0.717-0.709,0.717-3.188,0-3.898c-3.587,0.12-8.01,0.239-10.76,0.239
	s-7.771-0.12-12.553-0.239c-0.718,0.709-0.718,3.189,0,3.898c5.26,0.366,7.532,1.086,4.663,5.045l-14.705,20.993
	c-0.717,0.96-1.434,1.439-1.912,1.439c-0.359,0-0.837-0.48-1.435-1.32L132.107,19.28c-3.467-4.798-3.945-6.118,2.75-6.484
	c0.718-0.709,0.718-3.188,0-3.898c-4.423,0.12-8.847,0.239-13.629,0.239c-4.662,0-8.608-0.12-12.194-0.239
	c-0.717,0.709-0.598,3.189,0.12,3.898c5.021,0.368,7.293,0.966,12.194,8.03l16.977,24.304c0.956,1.437,1.674,2.395,1.674,3.592
	c0,0.719-0.479,1.796-1.196,2.754l-17.694,23.706c-4.065,5.507-7.89,6.944-13.27,7.423c-0.717,0.709-0.717,3.189,0,3.897
	c3.587-0.12,8.01-0.239,10.76-0.239s7.771,0.12,12.553,0.239c0.717-0.708,0.717-3.188,0-3.897c-5.261-0.359-7.532-0.957-4.662-5.022
	l15.781-22.123c0.717-0.956,1.434-1.677,1.793-1.677c0.479,0,0.957,0.362,1.674,1.319l14.825,21.046
	c3.347,4.784,3.825,6.099-2.87,6.457c-0.717,0.709-0.717,3.189,0,3.897c4.423-0.12,8.847-0.239,13.629-0.239
	c4.663,0,8.608,0.12,12.195,0.239c0.717-0.708,0.598-3.188-0.12-3.897c-5.021-0.359-7.054-1.556-12.075-8.5"/>
<path fill="#DEB887" d="M219.718,47.7c10.162,0,10.521,2.746,10.879,8.116c0.709,0.716,3.188,0.716,3.898-0.001
	c-0.12-2.989-0.239-6.456-0.239-10.521s0.12-7.173,0.239-10.282c-0.709-0.717-3.189-0.717-3.898,0.005
	c-0.358,6.62-0.717,8.185-10.879,8.185H208.6V21.657c0-6.464,1.436-7.664,6.701-7.664h5.385c12.686,0,15.678,4.776,18.312,13.009
	c1.431,0,2.743-0.237,3.698-0.593c-0.605-4.866-2.398-16.259-2.638-17.213c0-0.239-0.12-0.359-0.478-0.359
	c-2.032,0.359-2.63,0.359-5.619,0.359h-30.486c-3.826,0-10.64-0.149-15.422-0.299c-0.717,0.709-0.717,3.189-0.003,3.898
	c8.332,0.368,10.357,0.966,10.357,10.904v48.01c0,9.937-2.026,10.536-10.357,10.895c-0.714,0.709-0.714,3.189,0.003,3.897
	c4.184-0.12,10.162-0.239,15.542-0.239c5.38,0,11.238,0.12,15.421,0.239c0.718-0.708,0.718-3.188-0.002-3.897
	c-8.378-0.358-10.414-0.956-10.414-10.877V47.699"/>
<path fill="#DEB887" d="M272.371,37.999c10.287,0,16.629,9.33,16.629,26.541c0,15.06-7.778,18.765-13.4,18.765
	c-12.438,0-16.506-15.06-16.506-24.263C259.094,48.644,261.605,37.999,272.371,37.999 M248.802,61.793
	c0,12.197,8.136,25.71,25.124,25.71c7.657,0,13.52-2.75,17.587-6.696c5.384-5.262,7.782-12.795,7.782-20.09
	c0-12.436-6.825-26.915-25.13-26.915c-7.896,0-14.357,3.238-18.783,8.38C251.075,47.324,248.802,54.26,248.802,61.793z"/>
<path fill="#DEB887" d="M315.408,71.73c0,9.918-1.31,10.516-8.562,10.874c-0.713,0.709-0.713,3.189,0.004,3.897
	c4.185-0.12,8.608-0.239,13.391-0.239c4.781,0,9.325,0.12,13.27,0.239c0.717-0.708,0.717-3.188,0-3.897
	c-7.293-0.358-8.607-0.956-8.607-10.874V16.643c0-7.767,0.478-12.546,0.478-12.546c0-0.837-0.478-1.2-1.554-1.2
	c-2.989,1.187-11.955,2.85-16.737,3.205c-0.239,0.96-0.001,2.879,0.712,3.598c6.894,0.491,7.607,0.849,7.607,9.811"/>
<path fill="#DEB887" d="M357.396,71.733V47.96c0-5.973,0.421-13.619,0.421-13.619c0-0.478-0.599-0.838-1.555-0.838
	c-3.347,1.29-8.13,2.345-16.379,3.4c-0.239,0.707,0,2.591,0.239,3.298c6.58,0.609,7.779,1.327,7.779,8.153v23.353
	c0,9.94-1.317,10.299-8.615,10.898c-0.718,0.709-0.718,3.189,0,3.897c3.945-0.12,8.606-0.239,13.389-0.239s9.325,0.12,13.271,0.239
	c0.718-0.708,0.718-3.188,0.002-3.897c-7.246-0.478-8.554-0.955-8.554-10.871 M346.407,14.655c0,3.118,2.878,6.235,5.755,6.235
	c3.356,0,6.238-3.237,6.238-5.755c0-2.877-2.521-6.237-5.759-6.237C349.764,8.898,346.407,11.778,346.407,14.655L346.407,14.655z"/>
<path fill="#DEB887" d="M396.571,37.999c10.287,0,16.629,9.33,16.629,26.541c0,15.06-7.778,18.765-13.4,18.765
	c-12.438,0-16.506-15.06-16.506-24.263C383.294,48.644,385.805,37.999,396.571,37.999 M373.002,61.793
	c0,12.197,8.135,25.71,25.124,25.71c7.657,0,13.519-2.75,17.587-6.696c5.384-5.262,7.782-12.795,7.782-20.09
	c0-12.436-6.825-26.915-25.13-26.915c-7.896,0-14.357,3.238-18.783,8.38C375.275,47.324,373.002,54.26,373.002,61.793z"/>
</svg>
